<svg width="225" height="40" viewBox="0 0 225 40" fill="none" xmlns="http://www.w3.org/2000/svg">
<path d="M196.858 39.1842C187.839 36.3681 182.102 29.3663 181.688 20.7814C181.262 11.959 187.131 3.95762 196.138 1.07978C206.49 -2.22794 217.732 2.28852 222.211 11.555C228.003 23.5367 220.217 37.7542 206.87 39.6505C203.527 40.1255 200.245 40.0615 196.858 39.1842ZM213.805 34.0748C217.437 29.8304 217.864 24.8566 216.908 19.7035C215.726 13.3364 212.632 8.0945 206.873 4.63777C199.558 0.247074 191.387 3.45906 189.705 11.3901C189.146 14.0276 189.136 16.6847 189.639 19.3284C190.824 25.5545 193.328 31.0768 198.637 34.9847C203.64 38.6676 209.309 38.3475 213.805 34.0748Z" fill="#65371F"/>
<path d="M177.014 27.4381C173.224 35.1631 166.933 38.9555 158.478 39.2849C154.115 39.4549 149.74 39.3289 145.371 39.3162C143.764 39.3115 143.208 38.4707 144.172 37.2199C146.36 34.381 146.736 31.1809 146.684 27.7713C146.595 21.9797 146.65 16.1859 146.662 10.393C146.667 7.75588 146.067 5.31273 144.387 3.20451C143.899 2.5922 143.654 1.92315 143.969 1.20768C144.289 0.481548 145.041 0.707555 145.63 0.705086C150.051 0.686572 154.473 0.656754 158.895 0.699903C169.195 0.800415 177.512 8.52346 178.459 18.6399C178.746 21.7057 178.106 24.5248 177.014 27.4381ZM153.043 16.9285C153.042 22.3039 153.04 27.6793 153.039 33.0547C153.037 37.2996 153.039 37.2187 157.395 37.318C161.456 37.4107 164.677 35.8512 167.159 32.8048C171.114 27.9485 172.122 22.3267 171.151 16.3149C170.563 12.6729 169.212 9.33451 166.582 6.56952C164.082 3.93941 161.036 2.72375 157.417 2.72445C153.045 2.72531 153.043 2.70734 153.041 6.94504C153.038 10.1703 153.042 13.3956 153.043 16.9285Z" fill="#65371F"/>
<path d="M127.814 8.10373C131.126 16.3615 134.438 24.4918 137.632 32.6672C138.24 34.2223 139.377 35.1617 140.542 36.1713C140.97 36.543 141.464 36.8721 141.795 37.3172C142.492 38.2575 142.093 39.2816 141.001 39.2967C137.672 39.3425 134.341 39.3407 131.013 39.2894C129.889 39.272 129.365 38.1055 130.231 37.3612C132.242 35.6338 131.825 33.7972 130.885 31.805C130.514 31.0165 130.124 30.2103 129.932 29.3702C129.353 26.8418 127.785 25.5647 125.235 24.9498C121.555 24.0622 117.916 23.0049 114.201 22.239C113.368 22.0674 112.908 22.3006 112.619 23.0359C111.177 26.7157 109.715 30.3882 108.299 34.0776C107.925 35.052 108.262 35.971 108.722 36.8772C109.636 38.6805 109.237 39.3062 107.235 39.3186C106.142 39.3253 105.049 39.3377 103.957 39.307C103.416 39.2918 102.713 39.4979 102.459 38.809C102.224 38.1726 102.215 37.4747 102.772 36.9425C107.02 32.8795 107.681 27.1227 109.975 22.138C110.013 22.0549 109.98 21.9397 109.98 21.7248C108.32 21.179 106.553 21.136 104.828 21.0306C100.632 20.7743 96.4315 20.2559 92.2234 20.9056C90.0841 21.2359 88.1032 21.9549 86.3249 23.1882C85.8155 23.5415 85.3162 23.8708 84.6521 23.9498C83.7036 24.0627 83.1331 23.8057 83.0797 22.7916C83.0636 22.4848 83.021 22.1794 82.9904 21.8733C82.6793 18.7545 82.6682 18.6551 85.7923 18.3197C92.1061 17.6419 98.4341 17.3653 104.77 18.1348C106.625 18.3601 108.496 18.4615 110.346 18.719C111.386 18.8638 111.593 18.1696 111.855 17.519C113.503 13.4226 115.129 9.31761 116.763 5.21552C116.801 5.12008 116.841 5.02544 116.879 4.92999C118.604 0.59551 118.603 0.621882 123.379 0.679471C124.415 0.691967 124.994 1.01573 125.357 1.99265C126.107 4.01233 126.962 5.99438 127.814 8.10373ZM120.558 6.2161C120.373 5.8713 120.344 5.42866 119.776 5.13967C118.008 9.5812 116.244 13.9901 114.502 18.4068C114.204 19.1623 114.693 19.369 115.35 19.5015C117.179 19.8707 118.996 20.2993 120.822 20.6858C122.862 21.1174 124.799 21.9736 127.072 22.2503C124.883 16.8519 122.766 11.6326 120.558 6.2161Z" fill="#65371F"/>
<path d="M46.2613 19.1367C47.3512 19.1371 48.289 19.1717 49.2231 19.1289C50.2247 19.083 50.746 19.3552 50.7555 20.491C50.765 21.6396 50.3286 22.0535 49.2052 22.027C47.49 21.9865 45.7723 22.0519 44.0568 22.0153C43.0453 21.9937 42.5129 22.2896 42.5227 23.4017C42.5572 27.2968 42.549 31.1925 42.5208 35.0878C42.5134 36.1099 42.9979 36.367 43.9548 36.4052C48.8996 36.6022 53.4205 35.3823 57.517 32.6383C57.9015 32.3808 58.2958 32.0998 58.7287 31.9568C60.5654 31.3503 61.3684 31.9258 61.3025 33.8102C61.2524 35.2431 61.0842 36.6725 61.0522 38.1053C61.0308 39.0679 60.5461 39.3228 59.6752 39.3217C51.3537 39.3113 43.0321 39.3272 34.7106 39.3076C33.3919 39.3045 32.7601 38.3024 33.6027 37.2672C36.0688 34.2372 35.9888 30.7356 35.9559 27.1763C35.9048 21.641 35.8924 16.1046 35.9537 10.5696C35.9842 7.82012 35.5291 5.26687 33.7427 3.06588C33.274 2.48837 33.2102 1.82066 33.4624 1.17921C33.7319 0.493753 34.4318 0.700852 34.9683 0.700007C43.0818 0.687238 51.1954 0.710071 59.3088 0.674001C60.5669 0.668406 61.0868 1.06223 61.0706 2.34753C61.052 3.82834 61.2121 5.31286 61.3273 6.79329C61.4044 7.78388 60.971 8.18723 59.9749 8.1865C59.1098 8.18586 58.3613 7.99781 57.6464 7.48723C53.5227 4.54225 48.876 3.40239 43.8276 3.61745C42.8983 3.65703 42.5235 3.98385 42.5274 4.89654C42.5457 9.20194 42.5479 13.5076 42.5218 17.8129C42.5158 18.8078 42.9251 19.2098 43.9239 19.1436C44.6487 19.0957 45.3794 19.1359 46.2613 19.1367Z" fill="#65371F"/>
<path d="M70.6932 15.253C70.8573 22.4706 73.1964 28.6455 78.5239 33.5367C80.856 35.6778 83.5302 37.2072 86.837 37.3037C91.4022 37.437 94.9726 35.0956 96.9741 30.7358C97.321 29.9801 97.2641 28.9592 98.279 28.5857C99.0578 28.2991 101.812 28.4829 102.657 28.8845C100.02 35.1319 90.6302 41.7935 79.4133 39.297C70.4412 37.3001 62.164 29.4789 63.3632 17.5367C64.2313 8.89089 71.6002 0.547798 84.0747 0.114317C92.7541 -0.187284 101.361 4.89941 102.41 11.1696C99.8838 11.458 97.3631 11.3587 94.8505 11.2384C94.1103 11.203 93.8383 10.413 93.4369 9.8954C91.0107 6.76657 88.1069 4.27686 84.1461 3.2561C77.6948 1.59347 72.162 5.12027 71.0302 11.595C70.8275 12.7546 70.61 13.9185 70.6932 15.253Z" fill="#65371F"/>
<path d="M0.0711335 38.5174C-0.21535 36.5493 0.381419 35.0699 1.53849 33.5798C8.80358 24.2238 15.977 14.7986 23.1773 5.39368C23.5177 4.94898 23.8246 4.47933 24.1473 4.02116C23.6473 3.42112 23.0322 3.65323 22.5075 3.64922C19.1283 3.62342 15.7488 3.65111 12.3695 3.63201C9.80848 3.61754 7.42504 4.238 5.2553 5.56138C4.44692 6.05444 3.58788 6.38383 2.76758 5.96599C1.9408 5.54486 2.27323 4.59017 2.27099 3.85685C2.25973 0.176314 2.20431 0.70489 5.45118 0.695905C13.0938 0.674762 20.7364 0.687183 28.3791 0.690215C30.3238 0.690985 30.2986 0.761661 30.4114 2.67819C30.5019 4.21493 29.9773 5.40443 29.0527 6.60473C21.9191 15.8658 14.8339 25.1632 7.73422 34.4497C7.33299 34.9746 6.93611 35.5026 6.56662 35.9903C6.84443 36.5056 7.24881 36.4177 7.58971 36.4181C11.8528 36.423 16.116 36.4261 20.379 36.4055C22.9317 36.3931 25.2736 35.6282 27.506 34.4394C29.6957 33.2733 30.4043 33.7045 30.3784 36.1418C30.3407 39.693 30.7444 39.3162 27.0803 39.3223C18.7618 39.3359 10.4433 39.3349 2.12481 39.3103C1.41283 39.3082 0.506334 39.6597 0.0711335 38.5174Z" fill="#65371F"/>
</svg>
